<mxfile host="app.diagrams.net" modified="2023-04-14T12:12:42.784Z" agent="Mozilla/5.0 (Windows NT 10.0; Win64; x64) AppleWebKit/537.36 (KHTML, like Gecko) Chrome/111.0.0.0 Safari/537.36" etag="x7ZzaXciEkHnnqr8cP0x" version="21.1.7" type="device">
  <diagram name="Page-1" id="h5fXNqeCorgbz__-0EG-">
    <mxGraphModel dx="1434" dy="741" grid="1" gridSize="10" guides="1" tooltips="1" connect="1" arrows="1" fold="1" page="1" pageScale="1" pageWidth="827" pageHeight="1169" math="0" shadow="0">
      <root>
        <mxCell id="0" />
        <mxCell id="1" parent="0" />
        <mxCell id="yscISXNDXEat5nVZqD3i-18" style="edgeStyle=orthogonalEdgeStyle;rounded=0;orthogonalLoop=1;jettySize=auto;html=1;exitX=0.25;exitY=1;exitDx=0;exitDy=0;entryX=0.25;entryY=0;entryDx=0;entryDy=0;" edge="1" parent="1" source="yscISXNDXEat5nVZqD3i-1" target="yscISXNDXEat5nVZqD3i-5">
          <mxGeometry relative="1" as="geometry" />
        </mxCell>
        <mxCell id="yscISXNDXEat5nVZqD3i-3" value="Client" style="shape=umlActor;verticalLabelPosition=bottom;verticalAlign=top;html=1;outlineConnect=0;" vertex="1" parent="1">
          <mxGeometry x="354" y="90" width="30" height="60" as="geometry" />
        </mxCell>
        <mxCell id="yscISXNDXEat5nVZqD3i-11" style="edgeStyle=orthogonalEdgeStyle;rounded=0;orthogonalLoop=1;jettySize=auto;html=1;exitX=0.25;exitY=1;exitDx=0;exitDy=0;entryX=0;entryY=0;entryDx=0;entryDy=15;entryPerimeter=0;" edge="1" parent="1" source="yscISXNDXEat5nVZqD3i-4" target="yscISXNDXEat5nVZqD3i-10">
          <mxGeometry relative="1" as="geometry" />
        </mxCell>
        <mxCell id="yscISXNDXEat5nVZqD3i-16" style="edgeStyle=orthogonalEdgeStyle;rounded=0;orthogonalLoop=1;jettySize=auto;html=1;exitX=0.75;exitY=0;exitDx=0;exitDy=0;entryX=0.75;entryY=1;entryDx=0;entryDy=0;" edge="1" parent="1" source="yscISXNDXEat5nVZqD3i-4" target="yscISXNDXEat5nVZqD3i-5">
          <mxGeometry relative="1" as="geometry" />
        </mxCell>
        <mxCell id="yscISXNDXEat5nVZqD3i-4" value="Data Access Layer" style="rounded=0;whiteSpace=wrap;html=1;" vertex="1" parent="1">
          <mxGeometry x="200" y="440" width="320" height="60" as="geometry" />
        </mxCell>
        <mxCell id="yscISXNDXEat5nVZqD3i-15" style="edgeStyle=orthogonalEdgeStyle;rounded=0;orthogonalLoop=1;jettySize=auto;html=1;exitX=0.25;exitY=1;exitDx=0;exitDy=0;entryX=0.25;entryY=0;entryDx=0;entryDy=0;" edge="1" parent="1" source="yscISXNDXEat5nVZqD3i-5" target="yscISXNDXEat5nVZqD3i-4">
          <mxGeometry relative="1" as="geometry" />
        </mxCell>
        <mxCell id="yscISXNDXEat5nVZqD3i-17" style="edgeStyle=orthogonalEdgeStyle;rounded=0;orthogonalLoop=1;jettySize=auto;html=1;exitX=0.75;exitY=0;exitDx=0;exitDy=0;entryX=0.75;entryY=1;entryDx=0;entryDy=0;" edge="1" parent="1" source="yscISXNDXEat5nVZqD3i-5" target="yscISXNDXEat5nVZqD3i-1">
          <mxGeometry relative="1" as="geometry" />
        </mxCell>
        <mxCell id="yscISXNDXEat5nVZqD3i-5" value="Service Layer" style="rounded=0;whiteSpace=wrap;html=1;" vertex="1" parent="1">
          <mxGeometry x="200" y="320" width="320" height="60" as="geometry" />
        </mxCell>
        <mxCell id="yscISXNDXEat5nVZqD3i-12" style="edgeStyle=orthogonalEdgeStyle;rounded=0;orthogonalLoop=1;jettySize=auto;html=1;exitX=1;exitY=0;exitDx=0;exitDy=15;exitPerimeter=0;entryX=0.75;entryY=1;entryDx=0;entryDy=0;" edge="1" parent="1" source="yscISXNDXEat5nVZqD3i-10" target="yscISXNDXEat5nVZqD3i-4">
          <mxGeometry relative="1" as="geometry">
            <Array as="points">
              <mxPoint x="440" y="605" />
            </Array>
          </mxGeometry>
        </mxCell>
        <mxCell id="yscISXNDXEat5nVZqD3i-10" value="" style="shape=cylinder3;whiteSpace=wrap;html=1;boundedLbl=1;backgroundOutline=1;size=15;" vertex="1" parent="1">
          <mxGeometry x="330" y="590" width="60" height="80" as="geometry" />
        </mxCell>
        <mxCell id="yscISXNDXEat5nVZqD3i-20" value="&lt;b&gt;SpringBoot Student App Demo&lt;/b&gt;" style="text;html=1;align=center;verticalAlign=middle;whiteSpace=wrap;rounded=0;fillColor=#008a00;fontColor=#ffffff;strokeColor=#005700;" vertex="1" parent="1">
          <mxGeometry x="266.5" y="40" width="205" height="30" as="geometry" />
        </mxCell>
        <mxCell id="yscISXNDXEat5nVZqD3i-21" value="" style="group" vertex="1" connectable="0" parent="1">
          <mxGeometry x="200" y="200" width="320" height="60" as="geometry" />
        </mxCell>
        <mxCell id="yscISXNDXEat5nVZqD3i-1" value="API Layer" style="rounded=0;whiteSpace=wrap;html=1;" vertex="1" parent="yscISXNDXEat5nVZqD3i-21">
          <mxGeometry width="320" height="60" as="geometry" />
        </mxCell>
        <mxCell id="yscISXNDXEat5nVZqD3i-2" value="DELETE" style="text;html=1;strokeColor=#b85450;fillColor=#f8cecc;align=center;verticalAlign=middle;whiteSpace=wrap;rounded=0;" vertex="1" parent="yscISXNDXEat5nVZqD3i-21">
          <mxGeometry x="237" y="37" width="60" height="20" as="geometry" />
        </mxCell>
        <mxCell id="yscISXNDXEat5nVZqD3i-6" value="PUT" style="text;html=1;strokeColor=#82b366;fillColor=#d5e8d4;align=center;verticalAlign=middle;whiteSpace=wrap;rounded=0;" vertex="1" parent="yscISXNDXEat5nVZqD3i-21">
          <mxGeometry x="164" y="37" width="60" height="20" as="geometry" />
        </mxCell>
        <mxCell id="yscISXNDXEat5nVZqD3i-7" value="POST" style="text;html=1;strokeColor=#6c8ebf;fillColor=#dae8fc;align=center;verticalAlign=middle;whiteSpace=wrap;rounded=0;" vertex="1" parent="yscISXNDXEat5nVZqD3i-21">
          <mxGeometry x="90" y="37" width="60" height="20" as="geometry" />
        </mxCell>
        <mxCell id="yscISXNDXEat5nVZqD3i-19" value="GET" style="text;html=1;strokeColor=#666666;fillColor=#f5f5f5;align=center;verticalAlign=middle;whiteSpace=wrap;rounded=0;fontColor=#333333;" vertex="1" parent="yscISXNDXEat5nVZqD3i-21">
          <mxGeometry x="17" y="37" width="60" height="20" as="geometry" />
        </mxCell>
      </root>
    </mxGraphModel>
  </diagram>
</mxfile>
